PathFileType	4	(X/Y/Z)	/Users/itak/Documents/Research/Walk-IL/dataset/trc/00557_00009.trc
DataRate	CameraRate	NumFrames	NumMarkers	Units	OrigDataRate	OrigDataStartFrame	OrigNumFrames
100.000000	100.000000	4	53	mm	100.000000	336	385
Frame#	Time	RPSI			LPSI			L3			STRN			T10			C7			CLAV			RBAK			LBAK			LSHO			LUPA			LAEL			LAOL			LWTS			LWPS			LFRA			LIFD			LHPS			LHTS			RSHO			RUPA			RAEL			RAOL			RWTS			RWPS			RFRA			RIFD			RHTS			RHPS			RBHD			LFHD			RFHD			LBHD			LHIP			RHIP			RASI			LASI			LKNE			LTHI			LANK			LTIP			LTOE			LMT1			LMT5			LHEE			RKNE			RTHI			RANK			RTIP			RTOE			RMT1			RMT5			RHEE			
		X1	Y1	Z1	X2	Y2	Z2	X3	Y3	Z3	X4	Y4	Z4	X5	Y5	Z5	X6	Y6	Z6	X7	Y7	Z7	X8	Y8	Z8	X9	Y9	Z9	X10	Y10	Z10	X11	Y11	Z11	X12	Y12	Z12	X13	Y13	Z13	X14	Y14	Z14	X15	Y15	Z15	X16	Y16	Z16	X17	Y17	Z17	X18	Y18	Z18	X19	Y19	Z19	X20	Y20	Z20	X21	Y21	Z21	X22	Y22	Z22	X23	Y23	Z23	X24	Y24	Z24	X25	Y25	Z25	X26	Y26	Z26	X27	Y27	Z27	X28	Y28	Z28	X29	Y29	Z29	X30	Y30	Z30	X31	Y31	Z31	X32	Y32	Z32	X33	Y33	Z33	X34	Y34	Z34	X35	Y35	Z35	X36	Y36	Z36	X37	Y37	Z37	X38	Y38	Z38	X39	Y39	Z39	X40	Y40	Z40	X41	Y41	Z41	X42	Y42	Z42	X43	Y43	Z43	X44	Y44	Z44	X45	Y45	Z45	X46	Y46	Z46	X47	Y47	Z47	X48	Y48	Z48	X49	Y49	Z49	X50	Y50	Z50	X51	Y51	Z51	X52	Y52	Z52	X53	Y53	Z53	

337	3.36	994.6746215820312	1001.494018554688	423.6481323242188	1047.89404296875	1008.112731933594	302.0975952148438	1024.373291015625	1106.423217773438	362.7086181640625	1240.355834960938	1296.18359375	445.6519470214844	1012.993286132812	1232.39990234375	358.3675231933594	1056.431030273438	1507.968627929688	388.613037109375	1221.343139648438	1406.445068359375	439.3561706542969	959.0968017578125	1382.015747070312	445.9040832519531	1051.408203125	1455.988891601562	290.3865966796875	1173.46142578125	1480.736206054688	251.0650482177734	1198.33544921875	1362.402099609375	166.8928070068359	1249.298217773438	1164.954223632812	140.5960083007812	1157.86572265625	1121.461303710938	135.4115295410156	1382.580444335938	1036.126220703125	317.024169921875	1423.253662109375	999.5012817382812	248.1573486328125	1306.293212890625	1112.372802734375	172.9253692626953	1478.578979492188	909.9274291992188	377.9736022949219	1456.5390625	962.2450561523438	282.2178649902344	1445.578247070312	994.4159545898438	341.8078002929688	1057.933227539062	1473.984985351562	552.465576171875	1014.823425292969	1414.882568359375	609.8169555664062	969.1066284179688	1136.558227539062	671.4280395507812	917.7439575195312	1120.071044921875	634.9351806640625	1114.41552734375	924.8911743164062	668.2531127929688	1056.916381835938	901.7430419921875	722.0023803710938	976.8572998046875	1081.600708007812	683.3971557617188	1145.3427734375	759.0294799804688	688.1011352539062	1150.346313476562	842.2647094726562	699.1820068359375	1084.463256835938	832.9253540039062	733.3245849609375	1146.403564453125	1691.432495117188	487.6925354003906	1334.315063476562	1674.231323242188	399.62646484375	1278.547973632812	1678.187622070312	533.6885986328125	1215.777221679688	1683.075927734375	338.0931091308594	1221.427368164062	942.7254028320312	233.6125183105469	1066.824340820312	935.6172485351562	583.9445190429688	1165.568603515625	976.1883544921875	564.0724487304688	1272.130249023438	973.0918579101562	309.4035034179688	1283.552001953125	504.1258239746094	321.107666015625	1272.616455078125	670.48779296875	278.4140014648438	1171.58251953125	36.7103157043457	285.3114929199219	1214.870361328125	255.6855316162109	290.0875854492188	1348.634033203125	38.18095016479492	422.2238464355469	1264.453979492188	45.92147827148438	425.3393249511719	1288.703857421875	37.87969589233398	321.1426086425781	1087.984619140625	33.67173004150391	308.1547546386719	1184.276611328125	501.4994506835938	574.91796875	1125.66064453125	789.6915283203125	602.9310913085938	1060.947387695312	39.36045837402344	496.058349609375	1181.829345703125	354.3173522949219	555.5767822265625	1283.880981445312	40.52407455444336	543.2603759765625	1239.410278320312	43.48761749267578	480.9190673828125	1176.049438476562	40.52131652832031	566.5165405273438	1033.27392578125	30.00545501708984	424.7823791503906	
338	3.37	996.1015625	1002.090759277344	425.0989379882812	1049.37646484375	1008.738220214844	303.57958984375	1026.013305664062	1106.623168945312	364.2992248535156	1242.046630859375	1296.35791015625	447.1913452148438	1014.7470703125	1232.691162109375	360.0513305664062	1058.0390625	1508.269653320312	390.5180969238281	1223.071044921875	1406.63330078125	440.9435424804688	960.749267578125	1382.203979492188	447.6542663574219	1052.995483398438	1456.251586914062	292.4213562011719	1174.85302734375	1481.028198242188	252.6813659667969	1198.588989257812	1362.423706054688	168.3921356201172	1247.201904296875	1163.83154296875	141.7828063964844	1154.799438476562	1122.252563476562	137.1816101074219	1378.886840820312	1028.936767578125	315.1948547363281	1418.162353515625	992.498046875	245.3925323486328	1303.292724609375	1109.296997070312	173.0479888916016	1472.708374023438	900.0342407226562	373.4974365234375	1450.971069335938	954.0609741210938	278.6967468261719	1441.23291015625	985.64599609375	338.7804870605469	1059.541870117188	1474.08544921875	554.2716674804688	1016.438354492188	1414.881225585938	611.5966186523438	970.9525756835938	1136.462646484375	673.1216430664062	919.8056640625	1119.804931640625	636.387451171875	1116.609375	924.9705810546875	671.04638671875	1058.760131835938	901.8079223632812	724.3536987304688	978.7119750976562	1081.494262695312	685.135009765625	1147.55029296875	758.9989624023438	691.3287963867188	1152.263671875	842.2579345703125	702.2860717773438	1086.128173828125	832.9619750976562	735.85107421875	1147.33984375	1691.728515625	489.4598693847656	1335.3798828125	1675.184204101562	401.7000732421875	1279.452514648438	1679.005981445312	535.6259765625	1216.910278320312	1683.586181640625	339.9622192382812	1222.712280273438	942.9959716796875	235.0923004150391	1067.966796875	935.78466796875	585.368408203125	1166.861938476562	975.9635620117188	565.4921264648438	1273.537841796875	973.0189819335938	310.6827087402344	1282.75927734375	504.0367431640625	321.2889709472656	1272.573974609375	670.447265625	278.9478149414062	1171.449584960938	36.51591491699219	285.401611328125	1214.22509765625	255.62353515625	290.2381591796875	1348.445922851562	38.25480270385742	422.2023010253906	1264.38720703125	45.89129638671875	425.3460693359375	1288.587646484375	37.98292922973633	321.1959533691406	1087.81591796875	33.33781433105469	308.2310485839844	1183.457885742188	501.1933898925781	574.8707275390625	1126.161010742188	789.5811767578125	603.9296264648438	1060.714477539062	39.08148193359375	496.0867614746094	1181.18896484375	354.1011962890625	555.5046997070312	1283.867431640625	40.54168319702148	543.1796875	1239.366333007812	43.42184829711914	480.8627624511719	1176.017944335938	40.51801300048828	566.4859008789062	1033.141357421875	29.5732479095459	424.8059997558594	
339	3.38	997.4637451171875	1002.701049804688	426.5344543457031	1050.770874023438	1009.391662597656	305.0314025878906	1027.546508789062	1106.783569335938	365.8843078613281	1243.675048828125	1296.554321289062	448.671630859375	1016.455383300781	1232.9677734375	361.6884155273438	1059.558837890625	1508.565551757812	392.3789672851562	1224.724975585938	1406.841796875	442.4891052246094	962.319091796875	1382.380981445312	449.3170471191406	1054.5048828125	1456.519287109375	294.4106140136719	1176.113159179688	1481.358520507812	254.2333984375	1198.735961914062	1362.494995117188	169.8248291015625	1245.21240234375	1162.73974609375	142.9151153564453	1151.842041015625	1123.131958007812	138.9415893554688	1375.080688476562	1021.704345703125	313.0341491699219	1412.739990234375	985.2579345703125	242.31591796875	1300.282836914062	1106.1767578125	173.0462493896484	1466.54296875	890.2443237304688	368.8291931152344	1445.037719726562	945.6827392578125	274.8951416015625	1436.735717773438	976.840576171875	335.3631591796875	1061.047119140625	1474.154541015625	556.0152587890625	1017.918823242188	1414.839721679688	613.2932739257812	972.6611938476562	1136.351684570312	674.799560546875	921.73681640625	1119.51171875	637.8479614257812	1118.718139648438	925.09814453125	673.7066650390625	1060.61328125	901.8912353515625	726.638671875	980.45703125	1081.371337890625	686.8584594726562	1149.927124023438	759.0735473632812	694.3952026367188	1154.240966796875	842.3932495117188	705.282958984375	1087.875122070312	833.0304565429688	738.2849731445312	1148.165283203125	1692.02783203125	491.1483154296875	1336.369140625	1676.18798828125	403.7563171386719	1280.227416992188	1679.88720703125	537.5336303710938	1217.988037109375	1684.102416992188	341.7839660644531	1223.908935546875	943.30126953125	236.50634765625	1069.105590820312	935.9339599609375	586.7470092773438	1168.122924804688	975.7417602539062	566.8404541015625	1274.857177734375	972.9842529296875	311.8322448730469	1282.032592773438	504.0155029296875	321.4864196777344	1272.537353515625	670.4680786132812	279.4972534179688	1171.341186523438	36.37469482421875	285.4490356445312	1213.632568359375	255.6180114746094	290.3785400390625	1348.270751953125	38.33157730102539	422.1719970703125	1264.338012695312	45.87542343139648	425.3377380371094	1288.489868164062	38.07226943969727	321.2327880859375	1087.670043945312	33.06656646728516	308.2918395996094	1182.66796875	500.9263610839844	574.6619873046875	1126.70751953125	789.4574584960938	604.8267822265625	1060.525634765625	38.84172821044922	496.0863647460938	1180.56396484375	353.9244995117188	555.3154907226562	1283.86083984375	40.56072998046875	543.0927124023438	1239.344116210938	43.33671951293945	480.7672729492188	1176.004638671875	40.52951431274414	566.4212646484375	1033.014770507812	29.14276885986328	424.8119201660156	
340	3.39	998.7654418945312	1003.333801269531	427.9356689453125	1052.088500976562	1010.076599121094	306.4432983398438	1028.968994140625	1106.929321289062	367.4489135742188	1245.236083984375	1296.7783203125	450.096923828125	1018.098754882812	1233.248291015625	363.2855224609375	1060.99658203125	1508.859985351562	394.2002258300781	1226.299438476562	1407.072509765625	444.0048522949219	963.8117065429688	1382.558227539062	450.9029541015625	1055.940063476562	1456.796752929688	296.3622436523438	1177.255493164062	1481.732421875	255.7308959960938	1198.79150390625	1362.624145507812	171.2104644775391	1243.348999023438	1161.658447265625	144.0052185058594	1149.009887695312	1124.08984375	140.7440185546875	1371.19091796875	1014.417175292969	310.5460510253906	1406.9775390625	977.794189453125	238.9225616455078	1297.275024414062	1103.001586914062	172.92724609375	1460.109619140625	880.5010375976562	363.9230346679688	1438.73681640625	937.11376953125	270.7722473144531	1432.10400390625	967.97412109375	331.5381774902344	1062.466430664062	1474.20361328125	557.7042236328125	1019.288696289062	1414.772216796875	614.9176635742188	974.2716064453125	1136.239501953125	676.45703125	923.5735473632812	1119.2158203125	639.3084716796875	1120.762939453125	925.2678833007812	676.2379150390625	1062.470458984375	901.9913330078125	728.8518676757812	982.127197265625	1081.251708984375	688.5684814453125	1152.398071289062	759.2177124023438	697.2799072265625	1156.256103515625	842.6395263671875	708.1415405273438	1089.697631835938	833.1299438476562	740.6305541992188	1148.879638671875	1692.330810546875	492.7546997070312	1337.288208007812	1677.231567382812	405.7777099609375	1280.880859375	1680.82861328125	539.4046020507812	1219.01171875	1684.614379882812	343.5485534667969	1225.0341796875	943.635498046875	237.8358154296875	1070.234985351562	936.0767211914062	588.064208984375	1169.362426757812	975.5714111328125	568.1397094726562	1276.094482421875	973.015380859375	312.8979797363281	1281.372802734375	504.0405578613281	321.7061157226562	1272.525268554688	670.5430297851562	280.0582580566406	1171.236572265625	36.27141571044922	285.4616394042969	1213.089233398438	255.6568603515625	290.4999084472656	1348.110107421875	38.41520309448242	422.1257934570312	1264.2978515625	45.87255477905273	425.3146057128906	1288.410278320312	38.14963912963867	321.2542419433594	1087.548583984375	32.84550094604492	308.3333740234375	1181.923217773438	500.7130126953125	574.3401489257812	1127.302124023438	789.3401489257812	605.6273803710938	1060.385375976562	38.63768768310547	496.0650024414062	1179.968627929688	353.7979431152344	555.0489501953125	1283.857543945312	40.57809448242188	543.00830078125	1239.338134765625	43.24052810668945	480.6446838378906	1176.006591796875	40.55166625976562	566.3348999023438	1032.893920898438	28.7298641204834	424.8097839355469	
